<?xml version="1.0" standalone="no"?>
<!DOCTYPE svg PUBLIC "-//W3C//DTD SVG 20010904//EN"
 "http://www.w3.org/TR/2001/REC-SVG-20010904/DTD/svg10.dtd">
<svg version="1.0" xmlns="http://www.w3.org/2000/svg"
 width="112.000000pt" height="112.000000pt" viewBox="0 0 112.000000 112.000000"
 preserveAspectRatio="xMidYMid meet">
<metadata>
Created by potrace 1.11, written by Peter Selinger 2001-2013
</metadata>
<g transform="translate(0.000000,112.000000) scale(0.100000,-0.100000)"
fill="#000000" stroke="none">
<path d="M252 1076 c-50 -70 -83 -160 -97 -266 -5 -43 -7 -278 -1 -305 2 -11
7 -42 10 -70 4 -27 18 -92 32 -144 28 -109 64 -161 148 -216 160 -105 333 -96
470 26 80 71 121 144 140 248 17 90 23 310 11 386 -21 134 -78 276 -133 328
l-30 29 -20 -23 c-26 -27 -52 -81 -67 -139 -12 -45 -12 -45 -51 -41 -64 8
-177 7 -206 -2 -27 -7 -29 -4 -79 95 -49 99 -74 138 -89 138 -4 0 -21 -20 -38
-44z m94 -203 c62 -114 63 -115 169 -107 54 3 109 1 139 -5 62 -15 75 -4 112
90 15 38 32 68 38 66 19 -6 64 -111 79 -183 18 -84 19 -309 2 -374 -24 -91
-99 -183 -186 -226 -55 -28 -71 -28 -75 2 -1 10 -5 37 -8 59 -4 26 -1 49 9 65
27 46 28 52 14 64 -17 16 -120 7 -126 -10 -2 -7 7 -24 22 -39 18 -21 25 -39
25 -70 0 -23 3 -57 6 -74 l7 -31 -49 0 c-175 0 -309 194 -313 455 -2 129 57
385 90 385 4 0 24 -30 45 -67z"/>
<path d="M826 567 c-32 -23 -108 -46 -143 -42 -30 3 -29 -16 2 -45 19 -18 32
-22 63 -18 89 12 139 59 116 108 -9 18 -10 18 -38 -3z"/>
<path d="M296 515 c-3 -8 5 -26 17 -40 43 -51 152 -39 152 15 0 24 -3 25 -67
26 -37 1 -74 4 -82 7 -8 3 -17 -1 -20 -8z"/>
</g>
</svg>
